<?xml version="1.0" encoding="utf-8"?>
<!-- Generator: Adobe Illustrator 21.0.0, SVG Export Plug-In . SVG Version: 6.00 Build 0)  -->
<svg version="1.1" id="Layer_1" xmlns="http://www.w3.org/2000/svg" xmlns:xlink="http://www.w3.org/1999/xlink" x="0px" y="0px"
	 viewBox="0 0 230 60" style="enable-background:new 0 0 230 60;" xml:space="preserve">
<style type="text/css">
	.st0{fill:#00568A;}
	.st1{fill:#4B9750;}
</style>
<title>Artboard 1</title>
<path class="st0" d="M4.5,26.8c-0.1,0-0.1,0-0.1-0.1v-0.6c0,0,0,0,0.1,0c0.3,0,0.6,0,0.8-0.1c0.2-0.1,0.5-0.3,0.7-0.5
	c0.2-0.1,0.3-0.3,0.5-0.5c0.1-0.2,0.2-0.4,0.2-0.7V10.9c0-0.3,0-0.7-0.1-1C6.4,9.7,6.3,9.5,6.1,9.3C5.9,9.2,5.7,9.1,5.5,9.1
	c-0.3,0-0.6,0-0.9,0H4C3.9,9.1,3.8,9,3.8,8.9c0-0.1-0.1-0.2-0.1-0.3c0-0.1,0-0.1,0-0.2c0-0.1,0.1-0.1,0.1-0.2h0.8h0.8h1.6l1.7-0.2
	h1.7H12h1.9c0.7,0,1.4,0.1,2.1,0.4c0.7,0.2,1.3,0.6,1.8,1c0.5,0.5,1,1.1,1.2,1.7c0.3,0.7,0.5,1.6,0.5,2.4c0,0.5-0.1,1-0.2,1.5
	c-0.2,0.5-0.4,1-0.7,1.4c-0.3,0.4-0.6,0.8-1,1.2c-0.4,0.3-0.7,0.6-1.2,0.9c-0.4,0.2-0.8,0.4-1.3,0.6c-0.3,0.1-0.7,0.1-1,0.1h-0.1
	l-3.1-0.1h-0.1c0,0-0.1,0-0.1,0l-0.1,0c0,0,0,0.1,0,0.1v5c0,0.3,0.1,0.6,0.3,0.9c0.2,0.2,0.5,0.4,0.7,0.5c0.3,0.1,0.7,0.2,1,0.3
	c0.4,0.1,0.7,0.1,1.1,0.1c0.1,0,0.1,0,0.1,0c0,0,0,0,0,0.1v0.6c0,0,0,0,0,0.1c0,0-0.1,0-0.1,0L4.5,26.8z M10.4,17.6
	c0,0.1,0,0.1,0.1,0.2c0,0.1,0.1,0.1,0.2,0.1h0.2h0.3h0.4H12c0.5,0,1.1-0.1,1.6-0.4c0.4-0.2,0.8-0.6,1.1-1c0.3-0.4,0.5-0.9,0.7-1.5
	c0.2-0.6,0.2-1.3,0.2-1.9c0.1-1.1-0.2-2.3-0.9-3.2c-0.7-0.7-1.6-1.1-2.6-1h-1h-0.4h-0.2c-0.1,0-0.1,0.1-0.1,0.2v8L10.4,17.6z"/>
<path class="st0" d="M24.1,14.4l0.1,0h0.1c0.1,0,0.2,0.1,0.2,0.3v2.2c0,0,0,0.1,0,0.1c0,0,0,0.1,0.1,0.1c0,0,0,0,0,0
	c0,0,0.1,0,0.1,0l0.1-0.1l0.5-0.7c0.2-0.3,0.4-0.5,0.6-0.7c0.2-0.2,0.4-0.4,0.7-0.6c0.2-0.1,0.4-0.2,0.7-0.2c0.2,0,0.4,0.1,0.6,0.1
	c0.3,0.1,0.5,0.2,0.7,0.3c0.2,0.1,0.4,0.2,0.6,0.4c0.2,0.1,0.3,0.2,0.3,0.3c0,0.2-0.1,0.3-0.1,0.4c-0.1,0.2-0.2,0.4-0.3,0.6
	c-0.1,0.2-0.2,0.4-0.4,0.6c-0.1,0.2-0.3,0.3-0.4,0.3l0,0c-0.2-0.1-0.3-0.1-0.5-0.2l-0.5-0.2c-0.2-0.1-0.3-0.1-0.5-0.2
	c-0.2,0-0.3-0.1-0.5-0.1c-0.3,0-0.5,0.1-0.7,0.2c-0.2,0.1-0.4,0.2-0.6,0.4c-0.2,0.2-0.3,0.4-0.4,0.6c-0.1,0.2-0.1,0.4-0.1,0.6v5.4
	c0,0.2,0,0.4,0.2,0.6c0.1,0.2,0.3,0.3,0.4,0.4c0.2,0.1,0.4,0.2,0.6,0.2l0.6,0.1l0.5,0.1c0.1,0,0.2,0,0.4,0.1c0.1,0,0.1,0.2,0.1,0.4
	s0,0.4-0.1,0.4h-7.6c-0.1,0-0.1-0.1-0.1-0.4s0-0.3,0.1-0.4c0.2-0.1,0.3-0.1,0.5-0.1c0.2,0,0.4-0.1,0.6-0.2c0.2-0.1,0.4-0.3,0.5-0.4
	c0.2-0.3,0.3-0.6,0.2-0.9v-6.3c0-0.2-0.1-0.4-0.2-0.5c-0.1-0.1-0.3-0.2-0.4-0.3c-0.2-0.1-0.4-0.1-0.6-0.1L19.7,17c0,0-0.1,0-0.1-0.1
	c0-0.1,0-0.1,0-0.2c0,0,0-0.1,0-0.1c0-0.1,0.1-0.1,0.2-0.1L24.1,14.4z"/>
<path class="st0" d="M30.5,26.8c0,0-0.1-0.1-0.1-0.2c0-0.1,0-0.2,0-0.2c0-0.1,0-0.1,0-0.2c0-0.1,0.1-0.1,0.1-0.2
	c0.2-0.1,0.3-0.1,0.5-0.1c0.2,0,0.4-0.1,0.6-0.2c0.2-0.1,0.4-0.2,0.5-0.4c0.2-0.3,0.3-0.6,0.2-0.9v-6.3c0-0.2-0.1-0.4-0.2-0.5
	c-0.1-0.1-0.3-0.2-0.4-0.3c-0.2-0.1-0.4-0.1-0.6-0.1L30.6,17c0,0-0.1,0-0.1-0.1c0-0.1,0-0.1,0-0.2c0,0,0-0.1,0-0.1
	c0-0.1,0.1-0.1,0.2-0.1l4.4-2.1l0.1,0h0.1c0.1,0,0.2,0.1,0.2,0.3v9.7c0,0.3,0.1,0.6,0.2,0.9c0.1,0.2,0.3,0.3,0.5,0.4
	c0.2,0.1,0.4,0.1,0.6,0.2c0.2,0,0.3,0.1,0.5,0.1c0,0,0.1,0.1,0.1,0.2c0,0.1,0,0.1,0,0.2c0,0.1,0,0.2,0,0.2c0,0.1,0,0.2-0.1,0.2
	L30.5,26.8z M31.8,9.6c0-1,0.8-1.8,1.8-1.8s1.8,0.8,1.8,1.8l0,0c0,0.5-0.2,1-0.5,1.3c-0.8,0.7-1.9,0.7-2.7,0
	C31.9,10.5,31.8,10.1,31.8,9.6z"/>
<path class="st0" d="M45.5,26.4c0,0.1,0,0.1,0,0.2c0,0.1,0,0.1-0.1,0.2h-6.9c0,0-0.1-0.1-0.1-0.2c0-0.1,0-0.1,0-0.2
	c0-0.1,0-0.1,0-0.2c0-0.1,0.1-0.1,0.1-0.2c0.2-0.1,0.3-0.1,0.5-0.1c0.2,0,0.4-0.1,0.6-0.2c0.2-0.1,0.4-0.3,0.5-0.4
	c0.2-0.3,0.3-0.6,0.2-0.9V9.1c0-0.2-0.1-0.4-0.2-0.5c-0.1-0.1-0.3-0.2-0.4-0.3c-0.2-0.1-0.4-0.1-0.6-0.1L38.6,8
	c-0.1,0-0.2-0.2-0.2-0.4c0-0.1,0-0.1,0-0.2c0-0.1,0.1-0.1,0.2-0.2L43,5.2l0.1-0.1h0.1c0.1,0,0.1,0,0.1,0.1c0,0.1,0,0.2,0,0.2v18.9
	c0,0.3,0.1,0.6,0.2,0.9c0.1,0.2,0.3,0.3,0.5,0.4c0.2,0.1,0.4,0.1,0.6,0.2c0.2,0,0.3,0.1,0.5,0.1c0,0,0.1,0.1,0.1,0.2
	C45.4,26.2,45.5,26.3,45.5,26.4z"/>
<path class="st0" d="M46.7,16.5c-0.2-0.2-0.4-0.3-0.7-0.4h-0.2h-0.2c-0.1,0-0.1,0-0.2-0.1c0,0-0.1-0.1-0.1-0.2c0-0.1,0-0.1,0-0.2
	c0-0.1,0.1-0.1,0.2-0.1l4-1.2h0.2H50c0.1,0,0.1,0.1,0.1,0.2v8.9c0,0.3,0.1,0.6,0.2,0.8c0.1,0.2,0.3,0.4,0.5,0.6
	c0.2,0.2,0.5,0.3,0.8,0.4c0.3,0.1,0.6,0.1,0.9,0.1c0.2,0,0.4,0,0.7-0.1c0.2-0.1,0.4-0.2,0.7-0.3c0.2-0.1,0.4-0.2,0.6-0.4
	c0.2-0.1,0.3-0.3,0.5-0.5v-7c0-0.3-0.2-0.5-0.3-0.6c-0.2-0.2-0.4-0.3-0.7-0.4h-0.2h-0.2c-0.1,0-0.1,0-0.2-0.1c0,0-0.1-0.1-0.1-0.2
	c0-0.1,0-0.1,0-0.2c0-0.1,0.1-0.1,0.2-0.1l4-1.1h0.2h0.2c0.1,0,0.1,0,0.1,0.1v9.1c0,0.3,0.1,0.6,0.3,0.8c0.2,0.2,0.6,0.3,0.9,0.2
	l0.8,0c0,0,0.1,0.1,0.1,0.2s0,0.2,0,0.3c0,0.1,0,0.1,0,0.2c0,0.1-0.1,0.2-0.2,0.2l-4,1.6h-0.1h-0.1c-0.1,0-0.1,0-0.1-0.1
	c0-0.1,0-0.1,0-0.2v-1.4c0,0-0.1-0.1-0.1,0h0l0,0l-2.1,1l-0.5,0.2L52,26.9c-0.2,0.1-0.3,0.1-0.5,0.1c-0.2,0-0.4,0.1-0.6,0
	c-0.4,0-0.8,0-1.2-0.1c-0.4-0.1-0.8-0.2-1.2-0.4c-0.4-0.1-0.7-0.4-1-0.6c-0.3-0.2-0.4-0.6-0.4-0.9v-7.9C47,16.9,46.9,16.7,46.7,16.5
	z"/>
<path class="st0" d="M60.2,21.2c0-1.1,0.2-2.2,0.6-3.2c0.3-0.8,0.8-1.5,1.5-2.1c0.6-0.5,1.4-0.9,2.2-1.2c0.9-0.2,1.7-0.4,2.6-0.4
	h0.7c0.3,0,0.5,0,0.8,0.1c0.3,0,0.6,0.1,0.8,0.2c0.3,0.1,0.5,0.2,0.8,0.3c0.2,0.1,0.4,0.3,0.5,0.5c0.1,0.2,0.2,0.5,0.2,0.7
	c0,0.2,0,0.4-0.1,0.5c-0.1,0.1-0.2,0.2-0.3,0.3c-0.2,0.1-0.3,0.1-0.5,0.1c-0.2,0-0.4,0-0.6,0c-0.2,0-0.4,0-0.6-0.1
	c-0.2-0.1-0.3-0.2-0.5-0.3c-0.1-0.1-0.3-0.2-0.4-0.4c-0.1-0.1-0.3-0.3-0.4-0.4c-0.1-0.1-0.3-0.2-0.5-0.3c-0.2-0.1-0.4-0.1-0.7-0.1
	c-0.5,0-1.1,0.1-1.5,0.5c-0.4,0.3-0.7,0.7-0.9,1.2c-0.2,0.5-0.4,1-0.5,1.6c-0.1,0.5-0.1,1.1-0.1,1.6c0,0.7,0.1,1.3,0.2,1.9
	c0.1,0.5,0.3,1.1,0.6,1.5c0.3,0.4,0.7,0.8,1.1,1c0.5,0.3,1.1,0.4,1.7,0.4c0.2,0,0.5,0,0.7-0.1c0.2-0.1,0.5-0.2,0.7-0.3
	c0.2-0.1,0.4-0.3,0.6-0.5c0.2-0.2,0.4-0.4,0.6-0.6c0.1-0.1,0.2-0.2,0.3-0.3c0.1-0.1,0.3-0.1,0.4-0.1c0.2,0,0.4,0,0.6,0.2
	c0.1,0.1,0.2,0.2,0.2,0.4c0,0,0,0.1,0,0.1c0,0.1-0.1,0.2-0.1,0.2c-0.3,0.4-0.7,0.8-1.1,1.2c-0.4,0.3-0.8,0.6-1.2,0.9
	c-0.9,0.5-1.9,0.8-3,0.8c-0.7,0-1.5-0.2-2.1-0.5c-0.6-0.3-1.2-0.8-1.7-1.3c-0.5-0.6-0.9-1.2-1.2-1.9C60.4,22.7,60.3,21.9,60.2,21.2z
	"/>
<path class="st0" d="M78.7,26.4c0,0.1,0,0.2,0,0.3c0,0.1-0.1,0.1-0.1,0.1h-6.9c-0.1,0-0.1-0.1-0.1-0.4c0-0.3,0-0.4,0.1-0.4
	c0.2-0.1,0.3-0.1,0.5-0.1c0.2,0,0.4-0.1,0.6-0.2c0.2-0.1,0.4-0.2,0.6-0.4c0.2-0.3,0.3-0.6,0.2-0.9V8.8c0-0.2-0.1-0.4-0.2-0.5
	c-0.1-0.1-0.3-0.2-0.4-0.3c-0.2-0.1-0.4-0.1-0.6-0.1l-0.6-0.1c0,0-0.1,0-0.1-0.1c0-0.1,0-0.1,0-0.2c0,0,0-0.1,0-0.1
	c0-0.1,0.1-0.1,0.2-0.1l4.3-2.1l0.1-0.1h0.1c0.1,0,0.2,0.1,0.2,0.3v13c0,0.3,0.1,0.4,0.2,0.5c0.1,0.1,0.2,0.1,0.4,0.1
	c0.2,0,0.5-0.1,0.7-0.2c0.3-0.1,0.6-0.3,0.9-0.5c0.3-0.2,0.7-0.4,1-0.6c0.3-0.2,0.6-0.4,0.9-0.7c0.2-0.2,0.4-0.4,0.6-0.6
	c0.1-0.1,0.2-0.3,0.2-0.4c0-0.2-0.1-0.3-0.2-0.4c-0.2-0.1-0.4-0.1-0.6-0.1s-0.4-0.1-0.6-0.1c-0.2-0.1-0.2-0.2-0.2-0.4
	c0-0.1,0.1-0.2,0.2-0.3c0.1-0.1,0.2-0.1,0.4-0.1H86c0.4,0,0.6,0.1,0.6,0.3s-0.1,0.3-0.3,0.4c-0.2,0.1-0.5,0.2-0.8,0.3
	c-0.3,0.1-0.6,0.2-0.9,0.3c-0.3,0.1-0.6,0.3-0.9,0.5l-3.7,3c0,0.1,0,0.2,0.1,0.2l0.2,0.2l5,5.3c0.2,0.2,0.5,0.4,0.8,0.5
	c0.3,0.1,0.5,0.2,0.8,0.3l0.6,0.2c0.2,0.1,0.2,0.1,0.2,0.2c0,0.1,0,0.2,0,0.3c0,0.1-0.1,0.1-0.2,0.1h-7.2c-0.1,0-0.1,0-0.1-0.1
	c0-0.1,0-0.2,0-0.3c0-0.2,0-0.4,0.1-0.4c0.1,0,0.2-0.1,0.3-0.1c0.1,0,0.2-0.1,0.3-0.1c0.1-0.1,0.1-0.1,0.2-0.2
	c0.1-0.1,0.1-0.2,0.1-0.3c0-0.1-0.1-0.3-0.2-0.4c-0.1-0.2-0.2-0.3-0.4-0.5l-3.7-3.9l0,0l0,0c-0.1,0-0.1,0.1-0.1,0.2
	c0,0.1,0,0.3,0,0.5v3.2c0,0.3,0.1,0.6,0.2,0.9c0.1,0.2,0.3,0.3,0.6,0.4c0.2,0.1,0.4,0.1,0.6,0.2c0.2,0,0.3,0.1,0.5,0.1
	C78.7,26,78.7,26.2,78.7,26.4z"/>
<path class="st0" d="M110.6,24.5c0.2,0.3,0.4,0.6,0.6,0.8c0.2,0.2,0.5,0.4,0.8,0.4c0.1,0,0.3,0,0.4-0.1l0.6-0.2l0.6-0.2
	c0.1,0,0.3-0.1,0.4-0.1c0.1,0,0.2,0,0.3,0.1c0.1,0,0.1,0.1,0.2,0.1c0,0,0.1,0.1,0.1,0.1c0,0,0,0.1,0,0.1c0,0.1,0,0.1,0,0.2
	c-0.1,0.1-0.1,0.2-0.2,0.3c-0.5,0.3-1,0.6-1.6,0.8c-0.6,0.2-1.2,0.4-1.8,0.4c-0.4,0-0.8-0.1-1.1-0.2c-0.3-0.1-0.6-0.3-0.8-0.5
	c-0.3-0.2-0.5-0.5-0.7-0.8c-0.2-0.3-0.4-0.6-0.6-0.9l-0.3-0.4L107,24c-0.4,0.4-0.9,0.7-1.4,1.1c-0.5,0.4-1,0.7-1.6,1
	c-0.5,0.3-1.1,0.5-1.7,0.7c-0.6,0.2-1.2,0.3-1.8,0.3c-0.7,0-1.4-0.2-2-0.5c-0.6-0.3-1.2-0.7-1.6-1.2c-0.5-0.5-0.8-1.1-1.1-1.7
	c-0.3-0.6-0.4-1.3-0.4-1.9c0-0.6,0.1-1.2,0.4-1.8c0.2-0.5,0.6-1,1-1.5c0.5-0.5,1-0.9,1.6-1.2c0.6-0.4,1.3-0.7,1.9-1
	c-0.3-0.3-0.6-0.6-0.8-0.9c-0.2-0.3-0.4-0.6-0.6-0.9c-0.3-0.6-0.5-1.3-0.5-2c0-0.5,0.1-1.1,0.4-1.5c0.3-0.4,0.6-0.8,1-1.1
	c0.4-0.3,0.9-0.5,1.4-0.7c0.5-0.1,1.1-0.2,1.6-0.2c0.5,0,1,0.1,1.4,0.2c0.5,0.1,0.9,0.4,1.3,0.7c0.4,0.3,0.7,0.6,0.9,1
	c0.2,0.4,0.4,0.9,0.4,1.4c0,0.4-0.1,0.8-0.2,1.1c-0.2,0.4-0.4,0.7-0.6,1c-0.3,0.3-0.6,0.6-0.9,0.8c-0.3,0.2-0.7,0.5-1,0.6l-0.1,0
	c0,0,0,0,0,0.1c0,0.1,0,0.1,0.1,0.1l0.3,0.3c0.2,0.1,0.4,0.4,0.7,0.7c0.3,0.3,0.7,0.8,1.2,1.3c0.5,0.5,1.1,1.2,1.8,2l2.8-4.3
	c0.1-0.1,0.1-0.2,0.2-0.3c0-0.1,0.1-0.3,0.1-0.4c0-0.2-0.1-0.4-0.2-0.4c-0.1-0.1-0.2-0.1-0.3-0.1l-0.4-0.1c-0.1,0-0.2,0-0.3-0.1
	c-0.1,0-0.2-0.1-0.2-0.2c-0.1-0.1-0.1-0.2-0.1-0.2c0,0,0-0.1,0-0.1c0-0.1,0-0.1,0.1-0.1c0-0.1,0.1-0.1,0.2-0.1c0.1,0,0.2,0,0.3,0
	h5.1c0.1,0.1,0.1,0.2,0.2,0.3c0,0,0,0.1,0,0.1c0,0.1,0,0.3-0.2,0.4c-0.1,0.1-0.3,0.1-0.4,0.1l-0.6,0.1c-0.2,0-0.4,0.1-0.6,0.1
	c-0.2,0.1-0.4,0.1-0.6,0.2c-0.2,0.1-0.3,0.3-0.4,0.5l-3.8,6L110.6,24.5z M101.7,25.2c0.4,0,0.8-0.1,1.2-0.2c0.4-0.2,0.8-0.3,1.1-0.5
	c0.4-0.2,0.7-0.5,1.1-0.7L106,23c0.1-0.1,0.1-0.1,0.1-0.2c0,0,0-0.1,0-0.1c-0.6-1.1-1.3-2.1-2.1-3c-0.8-0.9-1.7-1.7-2.6-2.5
	l-0.2,0.1l-0.3,0.2c-0.3,0.2-0.7,0.5-0.9,0.8c-0.3,0.3-0.5,0.6-0.7,1c-0.2,0.4-0.4,0.8-0.5,1.2c-0.1,0.4-0.2,0.8-0.2,1.3
	c0,0.4,0.1,0.9,0.2,1.3c0.1,0.4,0.4,0.8,0.6,1.1c0.3,0.3,0.6,0.6,1,0.8C100.9,25,101.3,25.2,101.7,25.2z M101.2,12.1
	c0,0.3,0,0.6,0.1,0.9c0.1,0.3,0.2,0.6,0.3,0.8c0.1,0.3,0.3,0.5,0.5,0.7c0.2,0.2,0.4,0.4,0.7,0.6c0.2-0.1,0.4-0.2,0.6-0.4
	c0.2-0.2,0.3-0.4,0.4-0.7c0.1-0.3,0.2-0.5,0.3-0.8c0.1-0.2,0.1-0.5,0.1-0.7c0-0.3,0-0.6-0.1-0.9c0-0.3-0.1-0.5-0.3-0.7
	c-0.1-0.2-0.3-0.4-0.5-0.5c-0.2-0.1-0.5-0.2-0.8-0.2c-0.4,0-0.8,0.2-1,0.5C101.3,11.2,101.1,11.6,101.2,12.1z"/>
<path class="st0" d="M124,26.7C124,26.7,124,26.7,124,26.7v-0.7c0,0,0-0.1,0.1-0.1c0,0,0,0,0,0h0.7h0.3c0.1,0,0.2,0,0.2,0
	c0.2-0.1,0.4-0.2,0.5-0.4c0.1-0.2,0.3-0.4,0.3-0.6c0.1-0.2,0.1-0.5,0.2-0.8c0-0.3,0-0.6,0-0.9V10.1c0-0.2-0.1-0.4-0.3-0.6
	c-0.2-0.1-0.4-0.3-0.7-0.3c-0.2-0.1-0.5-0.1-0.8-0.1h-0.6c0,0-0.1,0-0.1,0c0,0,0,0,0-0.1V8.4c0,0,0,0,0-0.1c0,0,0,0,0.1,0h6
	l11.3,12.5l0.1,0.1c0,0,0,0,0.1,0c0,0,0,0,0.1,0c0,0,0-0.1,0-0.1V13c0-0.7,0-1.4-0.1-2.1c0-0.4-0.1-0.8-0.3-1.2
	c-0.1-0.3-0.4-0.5-0.7-0.6C140.2,9,139.8,9,139.4,9h-0.7c0,0-0.1,0-0.1,0c0,0,0,0,0-0.1V8.3c0,0,0,0,0-0.1c0,0,0,0,0.1,0h7.2
	c0.1,0,0.1,0,0.1,0c0,0,0,0,0,0.1v0.6c0,0,0,0,0,0.1c0,0,0,0-0.1,0c-0.2,0-0.5,0-0.7,0.1c-0.3,0.1-0.6,0.2-0.8,0.3
	c-0.3,0.1-0.5,0.3-0.7,0.5c-0.2,0.2-0.3,0.4-0.3,0.7v15.5c0,0.1,0,0.3-0.1,0.4c-0.1,0.1-0.2,0.2-0.3,0.2c-0.1,0.1-0.2,0.1-0.4,0.1
	c-0.1,0-0.2,0-0.4,0c-0.2,0-0.4,0-0.6-0.1c-0.3-0.1-0.5-0.3-0.7-0.5l-12.4-13.7l-0.1-0.1h-0.1c0,0-0.1,0-0.1,0.1v11.7
	c0,0.2,0.1,0.4,0.2,0.6c0.1,0.2,0.3,0.3,0.4,0.5c0.2,0.1,0.4,0.2,0.6,0.3c0.2,0.1,0.4,0.1,0.7,0.2c0.2,0,0.4,0.1,0.6,0.1h0.4
	c0,0,0.1,0,0.1,0c0,0,0,0,0,0v0.6c0,0,0,0,0,0.1c0,0,0,0-0.1,0L124,26.7L124,26.7z"/>
<path class="st0" d="M145.4,20.6c0-0.8,0.2-1.6,0.6-2.4c0.4-0.8,0.9-1.4,1.5-2c0.6-0.6,1.3-1.1,2.1-1.4c0.8-0.3,1.7-0.5,2.6-0.5
	c0.9,0,1.8,0.2,2.7,0.5c0.8,0.3,1.6,0.8,2.2,1.3c0.6,0.6,1.2,1.2,1.5,2c0.4,0.8,0.6,1.6,0.6,2.5c0,1.7-0.7,3.4-2,4.6
	c-0.6,0.6-1.4,1.1-2.2,1.4c-0.9,0.3-1.8,0.5-2.8,0.5c-0.9,0-1.9-0.2-2.7-0.5c-0.8-0.3-1.5-0.8-2.2-1.4c-0.6-0.6-1.1-1.3-1.4-2.1
	C145.6,22.4,145.4,21.5,145.4,20.6z M148.8,19.8c0,0.5,0,1,0.1,1.5c0.1,0.5,0.2,1,0.3,1.5c0.1,0.5,0.3,0.9,0.5,1.4
	c0.2,0.4,0.5,0.8,0.8,1.1c0.3,0.3,0.6,0.6,1,0.8c0.4,0.2,0.8,0.3,1.3,0.3c0.5,0,0.9-0.1,1.3-0.4c0.4-0.3,0.7-0.6,0.9-1
	c0.2-0.5,0.4-0.9,0.5-1.5c0.1-0.5,0.2-1.1,0.2-1.6c0-0.5,0-0.9-0.1-1.4c-0.2-1-0.5-1.9-0.9-2.8c-0.2-0.4-0.5-0.8-0.8-1.1
	c-0.3-0.3-0.6-0.6-1-0.8c-0.4-0.2-0.8-0.3-1.2-0.3c-0.5,0-0.9,0.1-1.3,0.4c-0.4,0.3-0.7,0.6-0.9,1c-0.2,0.4-0.4,0.9-0.5,1.4
	C148.8,18.8,148.8,19.3,148.8,19.8L148.8,19.8z"/>
<path class="st0" d="M164.2,14.4l0.1,0h0.1c0.1,0,0.2,0.1,0.2,0.3v2.2c0,0,0,0.1,0,0.1c0,0,0,0.1,0.1,0.1c0,0,0,0,0,0
	c0,0,0.1,0,0.1,0l0.1-0.1l0.5-0.7c0.2-0.3,0.4-0.5,0.6-0.7c0.2-0.2,0.4-0.4,0.7-0.6c0.2-0.1,0.4-0.2,0.7-0.2c0.2,0,0.4,0.1,0.6,0.1
	c0.3,0.1,0.5,0.2,0.7,0.3c0.2,0.1,0.4,0.2,0.6,0.4c0.2,0.1,0.3,0.2,0.3,0.3c0,0.2-0.1,0.3-0.1,0.4c-0.1,0.2-0.2,0.4-0.3,0.6
	c-0.1,0.2-0.2,0.4-0.4,0.6c-0.1,0.2-0.3,0.3-0.4,0.3l0,0c-0.2-0.1-0.3-0.1-0.5-0.2l-0.5-0.2c-0.2-0.1-0.3-0.1-0.5-0.2
	c-0.2,0-0.3-0.1-0.5-0.1c-0.3,0-0.5,0.1-0.7,0.2c-0.2,0.1-0.4,0.2-0.6,0.4c-0.2,0.2-0.3,0.4-0.4,0.6c-0.1,0.2-0.1,0.4-0.1,0.6v5.4
	c0,0.2,0,0.4,0.2,0.6c0.1,0.2,0.3,0.3,0.4,0.4c0.2,0.1,0.4,0.2,0.6,0.2l0.6,0.1l0.5,0.1c0.1,0,0.2,0,0.4,0.1c0.1,0,0.1,0.2,0.1,0.4
	s0,0.4-0.1,0.4h-7.6c-0.1,0-0.1-0.1-0.1-0.4s0-0.3,0.1-0.4c0.2-0.1,0.3-0.1,0.5-0.1c0.2,0,0.4-0.1,0.6-0.2c0.2-0.1,0.4-0.3,0.6-0.4
	c0.2-0.3,0.3-0.6,0.2-0.9v-6.3c0-0.2-0.1-0.4-0.2-0.5c-0.1-0.1-0.3-0.2-0.4-0.3c-0.2-0.1-0.4-0.1-0.6-0.1l-0.6-0.1
	c0,0-0.1,0-0.1-0.1c0-0.1,0-0.1,0-0.2c0,0,0-0.1,0-0.1c0-0.1,0.1-0.1,0.2-0.1L164.2,14.4z"/>
<path class="st0" d="M181,5.2l0.1-0.1h0.1c0.1,0,0.2,0.1,0.2,0.3v18.3c0,0.3,0.1,0.6,0.3,0.8c0.3,0.2,0.6,0.3,0.9,0.2l0.8,0
	c0,0,0.1,0,0.1,0.1c0,0,0,0.1,0,0.1c0,0,0,0,0,0.1c0,0-0.1,0.1-0.2,0.1l-4.6,1.9h-0.1h-0.1c-0.1,0-0.1,0-0.1-0.1c0-0.1,0-0.1,0-0.2
	v-0.9c0-0.1,0-0.1-0.1-0.1h-0.1l-0.9,0.5c-0.3,0.2-0.5,0.3-0.8,0.4c-0.3,0.1-0.6,0.2-0.9,0.3c-0.3,0.1-0.7,0.1-1,0.1
	c-0.7,0-1.5-0.2-2.1-0.5c-0.6-0.3-1.2-0.8-1.6-1.3c-0.4-0.6-0.8-1.2-1-1.9c-0.2-0.7-0.4-1.5-0.4-2.2c0-0.9,0.2-1.8,0.6-2.6
	c0.4-0.8,0.8-1.5,1.5-2c0.6-0.6,1.3-1,2.1-1.4c0.8-0.3,1.7-0.5,2.5-0.5c0.2,0,0.4,0,0.6,0.1l0.5,0.1l0.4,0.1c0.2,0,0.3,0.1,0.5,0.1
	h0.1c0,0,0.1-0.1,0.1-0.1V8.8c0-0.2-0.1-0.4-0.2-0.5c-0.1-0.1-0.3-0.2-0.4-0.3c-0.2-0.1-0.4-0.1-0.6-0.1l-0.6-0.1c0,0-0.1,0-0.1-0.1
	c0-0.1,0-0.1,0-0.2c0,0,0-0.1,0-0.1c0-0.1,0.1-0.1,0.2-0.1L181,5.2z M172.4,20.7c0,0.6,0.1,1.2,0.2,1.8c0.1,0.5,0.4,1.1,0.7,1.5
	c0.3,0.4,0.7,0.8,1.2,1c0.5,0.3,1.1,0.4,1.6,0.4c0.2,0,0.3,0,0.5-0.1c0.3-0.1,0.5-0.1,0.7-0.2c0.2-0.1,0.5-0.2,0.7-0.3
	c0.2-0.1,0.3-0.2,0.3-0.4V18c0-0.6-0.2-1.1-0.6-1.5c-0.5-0.4-1.2-0.6-1.9-0.6c-0.5,0-1.1,0.1-1.5,0.4c-0.4,0.3-0.8,0.7-1.1,1.1
	c-0.3,0.5-0.5,1-0.6,1.5C172.5,19.5,172.4,20.1,172.4,20.7z"/>
<path class="st0" d="M183.6,20.6c0-0.8,0.2-1.6,0.6-2.4c0.4-0.8,0.9-1.4,1.5-2c0.6-0.6,1.3-1.1,2.1-1.4c0.8-0.3,1.7-0.5,2.6-0.5
	c0.9,0,1.8,0.2,2.7,0.5c0.8,0.3,1.6,0.8,2.2,1.3c0.6,0.6,1.2,1.2,1.5,2c0.4,0.8,0.6,1.6,0.6,2.5c0,1.7-0.7,3.4-2,4.6
	c-0.6,0.6-1.4,1.1-2.2,1.4c-0.9,0.3-1.8,0.5-2.8,0.5c-0.9,0-1.9-0.2-2.7-0.5c-0.8-0.3-1.5-0.8-2.2-1.4c-0.6-0.6-1.1-1.3-1.4-2.1
	C183.7,22.4,183.6,21.5,183.6,20.6z M186.9,19.8c0,0.5,0,1,0.1,1.5c0.1,0.5,0.2,1,0.3,1.5c0.1,0.5,0.3,0.9,0.5,1.4
	c0.2,0.4,0.5,0.8,0.8,1.1c0.3,0.3,0.6,0.6,1,0.8c0.4,0.2,0.8,0.3,1.3,0.3c0.5,0,0.9-0.1,1.3-0.4c0.4-0.3,0.7-0.6,0.9-1
	c0.2-0.5,0.4-0.9,0.5-1.5c0.1-0.5,0.2-1.1,0.2-1.6c0-0.5,0-0.9-0.1-1.4c-0.2-1-0.5-1.9-0.9-2.8c-0.2-0.4-0.5-0.8-0.8-1.1
	c-0.3-0.3-0.6-0.6-1-0.8c-0.4-0.2-0.8-0.3-1.2-0.3c-0.5,0-0.9,0.1-1.3,0.4c-0.4,0.3-0.7,0.6-0.9,1c-0.2,0.4-0.4,0.9-0.5,1.4
	C187,18.8,186.9,19.3,186.9,19.8z"/>
<path class="st0" d="M201.9,14l0.1,0h0.1c0.1,0,0.2,0.1,0.2,0.3v2.1c0,0.1,0.1,0.1,0.1,0.1h0.1h0.1l1.4-0.7l1-0.5
	c0.2-0.1,0.5-0.2,0.8-0.3c0.2-0.1,0.4-0.1,0.7-0.2c0.2,0,0.5-0.1,0.8-0.1h1c0.4,0,0.8,0.1,1.1,0.3c0.3,0.2,0.6,0.4,0.8,0.7
	c0.2,0.3,0.4,0.6,0.5,1c0.1,0.4,0.2,0.8,0.3,1.2c0.1,0.4,0.1,0.8,0.1,1.2c0,0.4,0,0.8,0,1.1c0,0.3,0,0.6,0,0.9s0,0.5,0,0.9
	s0,0.7,0,1.1s0,0.9,0,1.4c0,0.4,0.2,0.8,0.5,1.1c0.2,0.1,0.3,0.2,0.5,0.3c0.2,0.1,0.4,0.1,0.5,0.1l0.5,0.1c0.1,0,0.2,0,0.3,0.1
	c0,0,0.1,0.1,0.1,0.2c0,0.1,0,0.1,0,0.2c0,0.1,0,0.2,0,0.2c0,0.1-0.1,0.2-0.1,0.2h-7.3c-0.1,0-0.1-0.1-0.1-0.2c0-0.1,0-0.2,0-0.2
	c0-0.1,0-0.1,0-0.2c0-0.1,0.1-0.1,0.1-0.2c0.1-0.1,0.3-0.1,0.4-0.1c0.2,0,0.4-0.1,0.6-0.2c0.2-0.1,0.4-0.3,0.5-0.5
	c0.2-0.3,0.3-0.6,0.3-1v-0.4c0-0.1,0-0.2,0-0.4s0-0.2,0-0.4s0-0.3,0-0.5c0-0.4,0-0.8,0-1.3s0-0.9,0-1.5c0-0.4,0-0.9-0.1-1.3
	c0-0.4-0.1-0.8-0.3-1.1c-0.1-0.3-0.4-0.6-0.7-0.8c-0.4-0.2-0.8-0.3-1.2-0.3c-0.2,0-0.3,0-0.5,0c-0.2,0-0.4,0.1-0.5,0.1
	c-0.2,0.1-0.5,0.2-0.8,0.4l-1.3,0.6l-0.2,0.1c-0.1,0.1-0.1,0.1-0.1,0.2v6.5c0,0.3,0.1,0.6,0.2,0.9c0.1,0.2,0.3,0.4,0.6,0.5
	c0.2,0.1,0.4,0.1,0.6,0.2c0.2,0,0.3,0.1,0.5,0.1c0,0,0.1,0.1,0.1,0.2c0,0.1,0,0.1,0,0.2c0,0.1,0,0.2,0,0.2c0,0.1-0.1,0.2-0.1,0.2
	h-6.9c-0.1,0-0.1-0.1-0.1-0.2c0-0.1,0-0.2,0-0.2c0-0.1,0-0.1,0-0.2c0-0.1,0.1-0.1,0.1-0.2c0.2-0.1,0.3-0.1,0.5-0.1
	c0.2,0,0.4-0.1,0.6-0.2c0.2-0.1,0.4-0.3,0.6-0.5c0.2-0.3,0.3-0.6,0.2-0.9v-6.6c0-0.2-0.1-0.4-0.2-0.5c-0.1-0.1-0.3-0.2-0.4-0.3
	c-0.2-0.1-0.4-0.1-0.6-0.1l-0.6-0.1c0,0-0.1,0-0.1-0.1c0-0.1,0-0.1,0-0.2c0,0,0-0.1,0-0.1c0-0.1,0.1-0.1,0.2-0.1L201.9,14z"/>
<path class="st0" d="M213.7,21.4c0-1,0.1-1.9,0.4-2.8c0.3-0.8,0.7-1.6,1.2-2.2c0.5-0.6,1.2-1.1,2-1.5c0.8-0.4,1.8-0.5,2.7-0.5
	c0.3,0,0.5,0,0.8,0.1c0.2,0,0.4,0.1,0.6,0.2c0.2,0.1,0.4,0.1,0.6,0.2l0.5,0.3c0.3,0.2,0.5,0.3,0.7,0.6c0.3,0.3,0.5,0.6,0.7,1
	c0.2,0.4,0.4,0.7,0.6,1.1c0.2,0.4,0.2,0.8,0.2,1.2c0,0.1,0,0.3-0.1,0.4c0,0.1-0.1,0.2-0.2,0.2h-7.8c-0.1,0-0.1,0.1-0.2,0.2
	c0,0.2,0,0.4,0,0.6c0,0.7,0.1,1.4,0.3,2.1c0.2,0.6,0.5,1.1,0.9,1.5c0.7,0.8,1.8,1.3,2.9,1.3c0.3,0,0.7,0,1-0.1
	c0.3-0.1,0.6-0.2,0.9-0.4c0.3-0.1,0.6-0.3,0.8-0.5c0.3-0.2,0.5-0.4,0.7-0.5h0.1c0,0,0.1,0,0.1,0.1c0.1,0.1,0.2,0.2,0.2,0.2l0.2,0.2
	c0,0,0,0.1,0,0.1c0,0,0,0.1-0.1,0.1c-0.3,0.4-0.7,0.7-1.1,1c-0.4,0.3-0.9,0.6-1.4,0.9c-0.5,0.3-1,0.5-1.5,0.6
	c-0.5,0.2-0.9,0.2-1.4,0.2c-0.8,0-1.7-0.2-2.4-0.5c-0.7-0.3-1.3-0.8-1.8-1.3c-0.5-0.5-0.9-1.1-1.1-1.8
	C213.9,22.9,213.7,22.2,213.7,21.4z M221.4,18.6c0.2,0,0.3-0.1,0.3-0.3c0-0.3,0-0.7-0.2-1c-0.1-0.3-0.3-0.6-0.5-0.8
	c-0.2-0.2-0.5-0.4-0.7-0.6c-0.3-0.1-0.7-0.2-1-0.2c-0.4,0-0.8,0.1-1.1,0.3c-0.3,0.2-0.6,0.4-0.8,0.7c-0.2,0.2-0.4,0.5-0.5,0.8
	c-0.1,0.2-0.2,0.5-0.2,0.7c0,0.1,0,0.2,0.1,0.3c0,0.1,0.1,0.1,0.2,0.1L221.4,18.6z"/>
<path class="st1" d="M7.2,34H11c1.3,0,2.6,0.2,3.8,0.7c0.9,0.4,1.8,1,2.5,1.7c0.6,0.7,1.1,1.5,1.4,2.4c0.7,2.1,0.5,4.3-0.4,6.3
	c-0.5,1.1-1.2,2-2,2.8c-0.9,0.8-1.9,1.4-2.9,1.8c-1.1,0.4-2.3,0.6-3.5,0.6H5.2L7.2,34z M9.8,48.8c1,0,2-0.2,2.9-0.5
	c0.9-0.3,1.7-0.8,2.4-1.5c0.7-0.7,1.3-1.4,1.7-2.3c0.4-1,0.6-2,0.6-3.1c0-0.8-0.1-1.6-0.4-2.3c-0.3-0.7-0.7-1.3-1.2-1.9
	c-0.6-0.5-1.2-1-1.9-1.2c-0.8-0.3-1.7-0.5-2.6-0.4H8.6L7,48.8H9.8z"/>
<path class="st1" d="M27.6,49.2c-0.5,0.4-1.1,0.7-1.7,0.9c-0.6,0.2-1.2,0.3-1.9,0.3c-0.6,0-1.2-0.1-1.7-0.4
	c-0.5-0.2-0.9-0.5-1.3-0.9c-0.4-0.4-0.7-0.9-0.9-1.4c-0.2-0.5-0.3-1.1-0.3-1.7c0-0.7,0.1-1.4,0.4-2c0.3-0.6,0.7-1.2,1.2-1.7
	c0.5-0.5,1.1-0.9,1.7-1.1c0.6-0.3,1.3-0.4,2-0.4c0.9,0,1.8,0.3,2.5,0.9c0.7,0.6,1.1,1.4,1.3,2.3l-1.8,0.7l-2,0.8l-2.1,0.8l-1.9,0.7
	c0.2,0.6,0.6,1.1,1.1,1.5c0.5,0.4,1.2,0.6,1.9,0.6c1,0,1.9-0.3,2.6-0.9L27.6,49.2z M27.5,43.8c-0.2-0.5-0.5-0.9-1-1.2
	c-0.4-0.3-1-0.5-1.5-0.5c-0.5,0-1,0.1-1.5,0.3c-0.5,0.2-0.9,0.5-1.3,0.8c-0.4,0.4-0.7,0.8-0.9,1.2C21.1,45,21,45.5,21,46v0.3
	l1.6-0.6l1.7-0.7l1.7-0.6L27.5,43.8z"/>
<path class="st1" d="M30.9,41.1H32l-0.2,2.3c0.4-0.7,1-1.4,1.7-1.8c0.7-0.5,1.6-0.7,2.4-0.7c0.7,0,1.5,0.2,2,0.8
	c0.5,0.5,0.7,1.3,0.6,2l-0.8,6.6h-1.2l0.8-6.2c0.1-0.5-0.1-0.9-0.4-1.3c-0.4-0.4-0.9-0.6-1.5-0.6c-0.5,0-0.9,0.1-1.4,0.2
	c-0.4,0.2-0.8,0.4-1.1,0.7c-0.3,0.3-0.6,0.6-0.8,1c-0.2,0.4-0.4,0.8-0.4,1.3L31,50.2h-1.2L30.9,41.1z"/>
<path class="st1" d="M42.6,37.1h1.2l-0.5,4.1H46l-0.1,1.1h-2.7l-1,7.9H41l1-7.9h-1.9l0.1-1.1h1.8L42.6,37.1z"/>
<path class="st1" d="M47.5,50.2h-1.2l1.1-9.1h1.2L47.5,50.2z M47.5,37.9c0-0.3,0.1-0.5,0.3-0.7c0.2-0.2,0.4-0.3,0.7-0.3
	c0.2,0,0.4,0.1,0.5,0.2c0.2,0.2,0.2,0.4,0.2,0.6c0,0.3-0.1,0.5-0.3,0.7c-0.2,0.2-0.4,0.3-0.7,0.3c-0.2,0-0.4-0.1-0.6-0.2
	C47.6,38.4,47.5,38.1,47.5,37.9z"/>
<path class="st1" d="M56,42l-0.8,0.9c-0.2-0.2-0.4-0.4-0.7-0.5c-0.3-0.1-0.7-0.2-1-0.2c-0.2,0-0.4,0-0.5,0.1c-0.2,0-0.4,0.1-0.5,0.2
	c-0.2,0.1-0.3,0.3-0.4,0.4c-0.1,0.2-0.2,0.4-0.2,0.7c0,0.3,0.1,0.5,0.3,0.7c0.2,0.2,0.4,0.4,0.7,0.5c0.3,0.1,0.6,0.3,0.9,0.4
	c0.3,0.1,0.6,0.3,0.9,0.5c0.3,0.2,0.5,0.4,0.7,0.7c0.2,0.3,0.3,0.6,0.3,1c0,0.4-0.1,0.8-0.2,1.2c-0.2,0.4-0.4,0.7-0.7,1
	c-0.3,0.3-0.6,0.5-1,0.7c-0.4,0.2-0.9,0.2-1.4,0.2c-0.5,0-1.1-0.1-1.5-0.3c-0.5-0.2-0.9-0.5-1.2-0.9c0.1-0.1,0.2-0.2,0.3-0.2
	l0.3-0.3l0.2-0.2c0.1-0.1,0.1-0.1,0.1-0.1c0.1,0.1,0.2,0.2,0.3,0.2c0.2,0.1,0.3,0.2,0.5,0.3c0.2,0.1,0.4,0.2,0.6,0.2
	c0.2,0.1,0.4,0.1,0.7,0.1c0.2,0,0.4,0,0.6-0.1c0.2-0.1,0.4-0.2,0.6-0.3c0.2-0.1,0.4-0.3,0.5-0.5c0.1-0.2,0.2-0.5,0.2-0.7
	c0-0.3-0.1-0.5-0.3-0.7c-0.2-0.2-0.5-0.4-0.7-0.5c-0.3-0.1-0.6-0.3-0.9-0.4c-0.3-0.1-0.6-0.3-0.9-0.5c-0.3-0.2-0.5-0.4-0.7-0.7
	c-0.2-0.3-0.3-0.7-0.3-1.1c0-0.4,0.1-0.9,0.3-1.3c0.2-0.3,0.4-0.6,0.7-0.9c0.3-0.2,0.6-0.4,1-0.5c0.8-0.2,1.6-0.2,2.3,0.1
	C55.4,41.4,55.7,41.6,56,42z"/>
<path class="st1" d="M59.5,37.1h1.2l-0.5,4.1H63l-0.1,1.1h-2.7l-1,7.9h-1.2l1-7.9h-1.9l0.1-1.1H59L59.5,37.1z"/>
<path class="st1" d="M68.9,42.5c-0.9,0-1.8,0.3-2.5,0.8c-0.4,0.3-0.6,0.6-0.9,1c-0.2,0.4-0.4,0.8-0.4,1.2l-0.6,4.7h-1.2l1.1-9.1h1.1
	l-0.2,2.3c0.2-0.4,0.5-0.8,0.8-1.1c0.3-0.3,0.7-0.6,1.1-0.8c0.4-0.2,0.7-0.4,1.1-0.5c0.3-0.1,0.7-0.2,1.1-0.2L68.9,42.5z"/>
<path class="st1" d="M71.4,54.6h-1.3l0.7-1.2l0.6-1.1l0.6-1.2c0.2-0.4,0.5-0.9,0.8-1.4c-0.5-1.4-1-2.9-1.5-4.4s-1-3-1.5-4.4h1.3
	c0.3,0.9,0.6,1.7,0.9,2.5c0.2,0.7,0.5,1.4,0.7,2c0.2,0.6,0.4,1.2,0.5,1.7s0.3,1,0.5,1.5c0.3-0.5,0.5-1,0.8-1.5s0.6-1.1,0.9-1.7
	c0.3-0.6,0.7-1.3,1.1-2c0.4-0.7,0.9-1.6,1.5-2.5h1.3L71.4,54.6z"/>
<path class="st1" d="M90.7,43.1l-0.6-2h1.1l2.3,7.3l3.9-7.3h1.2l-5.5,9.7l-2.1-6.4l-3.5,6.5l-3-9.7h1.2l2.1,7.3l0.8-1.6l0.9-1.7
	C90,44.4,90.3,43.7,90.7,43.1z"/>
<path class="st1" d="M100.1,50.2h-1.2l1.1-9.1h1.2L100.1,50.2z M100.1,37.9c0-0.3,0.1-0.5,0.3-0.7c0.2-0.2,0.4-0.3,0.7-0.3
	c0.2,0,0.4,0.1,0.6,0.2c0.2,0.2,0.2,0.4,0.2,0.6c0,0.3-0.1,0.5-0.3,0.7c-0.2,0.2-0.4,0.3-0.7,0.3c-0.2,0-0.4-0.1-0.6-0.2
	C100.2,38.4,100.1,38.1,100.1,37.9z"/>
<path class="st1" d="M105,37.1h1.2l-0.5,4.1h2.7l-0.1,1.1h-2.7l-1,7.9h-1.2l1-7.9h-1.8l0.1-1.1h1.8L105,37.1z"/>
<path class="st1" d="M110.9,32.8h1.2l-1.3,10.5c0.4-0.7,1-1.3,1.6-1.7c0.7-0.5,1.5-0.7,2.4-0.7c0.8-0.1,1.5,0.2,2.1,0.8
	c0.5,0.5,0.7,1.3,0.6,2l-0.8,6.6h-1.2l0.8-6.2c0.1-0.5-0.1-0.9-0.4-1.3c-0.4-0.4-0.9-0.6-1.4-0.6c-0.5,0-0.9,0.1-1.4,0.2
	c-0.4,0.2-0.8,0.4-1.2,0.7c-0.3,0.3-0.6,0.6-0.8,1c-0.2,0.4-0.4,0.8-0.4,1.3l-0.6,4.8h-1.2L110.9,32.8z"/>
<path class="st1" d="M124.2,46.2c0-0.7,0.2-1.4,0.4-2c0.3-0.6,0.7-1.2,1.2-1.7c0.5-0.5,1.1-0.9,1.7-1.1c0.6-0.3,1.3-0.4,2-0.4
	c0.4,0,0.8,0.1,1.2,0.2c0.4,0.1,0.7,0.3,1,0.5c0.3,0.2,0.5,0.4,0.7,0.7c0.2,0.2,0.3,0.5,0.4,0.7l0.3-1.9h1.2l-1.1,9.1h-1.2l0.1-0.9
	c0-0.2,0.1-0.3,0.1-0.5c0-0.1,0-0.3,0.1-0.4c-0.2,0.3-0.3,0.5-0.6,0.7c-0.3,0.3-0.6,0.5-0.9,0.7c-0.4,0.2-0.7,0.4-1.1,0.5
	c-0.4,0.1-0.9,0.2-1.3,0.2c-0.6,0-1.2-0.1-1.7-0.3c-0.5-0.2-0.9-0.5-1.3-0.9c-0.4-0.4-0.7-0.8-0.9-1.3
	C124.4,47.4,124.2,46.8,124.2,46.2z M125.5,46.1c0,0.4,0.1,0.9,0.2,1.2c0.1,0.4,0.4,0.7,0.7,1c0.3,0.3,0.6,0.5,1,0.7
	c0.4,0.2,0.8,0.2,1.3,0.2c0.5,0,1.1-0.1,1.6-0.3c0.5-0.2,0.9-0.5,1.3-0.8c0.4-0.4,0.7-0.8,0.9-1.2c0.2-0.5,0.3-1,0.3-1.5
	c0-0.4-0.1-0.8-0.2-1.2c-0.1-0.4-0.4-0.7-0.6-1c-0.3-0.3-0.6-0.5-1-0.7c-0.4-0.2-0.8-0.2-1.3-0.2c-0.5,0-1.1,0.1-1.6,0.3
	c-0.5,0.2-0.9,0.5-1.3,0.8c-0.4,0.4-0.7,0.8-0.9,1.2C125.6,45,125.5,45.5,125.5,46.1z"/>
<path class="st1" d="M144.4,34h3.8c1.3,0,2.6,0.2,3.8,0.7c0.9,0.4,1.8,1,2.5,1.7c0.6,0.7,1.1,1.5,1.4,2.4c0.7,2.1,0.5,4.3-0.4,6.3
	c-0.5,1.1-1.2,2-2.1,2.8c-0.9,0.8-1.9,1.4-2.9,1.8c-1.1,0.4-2.3,0.6-3.5,0.6h-4.6L144.4,34z M147,48.8c1,0,2-0.2,2.9-0.5
	c0.9-0.3,1.7-0.8,2.4-1.5c0.7-0.7,1.2-1.5,1.6-2.3c0.4-1,0.6-2,0.6-3.1c0-0.8-0.1-1.6-0.4-2.3c-0.3-0.7-0.7-1.3-1.2-1.9
	c-0.6-0.6-1.3-1-2-1.2c-0.8-0.3-1.7-0.5-2.6-0.4h-2.7l-1.6,13.3H147z"/>
<path class="st1" d="M157.8,50.2h-1.2l1.1-9.1h1.2L157.8,50.2z M157.8,37.9c0-0.3,0.1-0.5,0.3-0.7c0.2-0.2,0.4-0.3,0.7-0.3
	c0.2,0,0.4,0.1,0.6,0.2c0.2,0.2,0.2,0.4,0.2,0.6c0,0.3-0.1,0.5-0.3,0.7c-0.2,0.2-0.4,0.3-0.7,0.3c-0.2,0-0.4-0.1-0.6-0.2
	C157.9,38.4,157.8,38.1,157.8,37.9z"/>
<path class="st1" d="M160.4,42.4l0.2-1.2h1.6l0.3-2.7c0.1-1.6,0.8-3.1,1.9-4.2c1-0.9,2.4-1.5,3.7-1.5l-0.2,1.2
	c-1.1,0-2.1,0.4-2.8,1.2c-0.8,0.9-1.3,2-1.4,3.2l-0.3,2.7h3l-0.2,1.2h-3l-1,7.9H161l1-7.9L160.4,42.4z"/>
<path class="st1" d="M167.1,42.4l0.2-1.2h1.6l0.3-2.7c0.1-1.6,0.7-3.1,1.8-4.2c1-0.9,2.4-1.5,3.7-1.5l-0.2,1.2
	c-1.1,0-2.1,0.4-2.8,1.2c-0.8,0.9-1.3,2-1.4,3.2l-0.3,2.7h3l-0.2,1.2h-3l-1,7.9h-1.2l1-7.9L167.1,42.4z"/>
<path class="st1" d="M180.4,49.2c-0.5,0.4-1.1,0.7-1.7,0.9c-0.6,0.2-1.2,0.3-1.9,0.3c-0.6,0-1.2-0.1-1.7-0.3c-0.5-0.2-1-0.5-1.3-0.9
	c-0.4-0.4-0.7-0.9-0.9-1.4c-0.2-0.5-0.3-1.1-0.3-1.7c0-0.7,0.2-1.4,0.4-2c0.3-0.6,0.7-1.2,1.2-1.7c0.5-0.5,1.1-0.9,1.7-1.1
	c0.6-0.3,1.3-0.4,2-0.4c0.9,0,1.8,0.3,2.5,0.9c0.7,0.6,1.1,1.4,1.3,2.3l-1.8,0.7l-2,0.8l-2.1,0.8l-1.9,0.7c0.2,0.6,0.6,1.1,1.1,1.5
	c0.5,0.4,1.2,0.6,1.9,0.6c1,0,1.9-0.3,2.6-0.9L180.4,49.2z M180.2,43.8c-0.2-0.5-0.5-0.9-0.9-1.2c-0.4-0.3-1-0.5-1.5-0.4
	c-0.5,0-1,0.1-1.5,0.3c-0.5,0.2-0.9,0.5-1.3,0.8c-0.4,0.4-0.7,0.8-0.9,1.2c-0.2,0.5-0.3,0.9-0.3,1.4v0.3l1.6-0.6L177,45l1.7-0.6
	L180.2,43.8z"/>
<path class="st1" d="M188.2,42.5c-0.9,0-1.8,0.3-2.5,0.8c-0.4,0.3-0.6,0.6-0.9,1c-0.2,0.4-0.4,0.8-0.4,1.2l-0.6,4.7h-1.2l1.1-9.1
	h1.1l-0.2,2.3c0.2-0.4,0.5-0.8,0.8-1.1c0.3-0.3,0.7-0.6,1.1-0.8c0.4-0.2,0.7-0.4,1.1-0.5c0.3-0.1,0.7-0.2,1.1-0.2L188.2,42.5z"/>
<path class="st1" d="M196.2,49.2c-0.5,0.4-1.1,0.7-1.7,0.9c-0.6,0.2-1.2,0.3-1.9,0.3c-0.6,0-1.2-0.1-1.7-0.4c-0.5-0.2-1-0.5-1.3-0.9
	c-0.4-0.4-0.7-0.9-0.9-1.4c-0.2-0.5-0.3-1.1-0.3-1.7c0-0.7,0.2-1.4,0.4-2c0.3-0.6,0.7-1.2,1.2-1.7c0.5-0.5,1.1-0.9,1.7-1.1
	c0.6-0.3,1.3-0.4,2-0.4c0.9,0,1.8,0.3,2.5,0.9c0.7,0.6,1.1,1.4,1.3,2.3l-1.8,0.7l-2,0.8l-2.1,0.8l-1.9,0.7c0.2,0.6,0.6,1.1,1.1,1.5
	c0.5,0.4,1.2,0.6,1.9,0.6c1,0,1.9-0.3,2.6-0.9L196.2,49.2z M196.1,43.8c-0.2-0.5-0.5-0.9-0.9-1.2c-0.4-0.3-1-0.5-1.5-0.4
	c-0.5,0-1,0.1-1.5,0.3c-0.5,0.2-0.9,0.5-1.3,0.8c-0.4,0.4-0.7,0.8-0.9,1.2c-0.2,0.5-0.3,0.9-0.3,1.4v0.3l1.6-0.6l1.7-0.7l1.7-0.6
	L196.1,43.8z"/>
<path class="st1" d="M199.5,41.1h1.1l-0.2,2.3c0.4-0.7,1-1.4,1.7-1.8c0.7-0.5,1.6-0.7,2.4-0.7c0.7,0,1.5,0.2,2,0.8
	c0.5,0.5,0.7,1.3,0.6,2l-0.8,6.6h-1.2l0.8-6.2c0.1-0.5-0.1-0.9-0.4-1.3c-0.4-0.4-0.9-0.6-1.4-0.6c-0.5,0-0.9,0.1-1.4,0.2
	c-0.4,0.2-0.8,0.4-1.2,0.7c-0.3,0.3-0.6,0.6-0.8,1c-0.2,0.4-0.4,0.8-0.4,1.3l-0.6,4.8h-1.2L199.5,41.1z"/>
<path class="st1" d="M215,48.4l0.7,0.9c-0.5,0.3-0.9,0.6-1.5,0.8c-0.5,0.2-1.1,0.3-1.7,0.3c-0.6,0-1.2-0.1-1.7-0.3
	c-0.5-0.2-1-0.5-1.3-0.9c-0.4-0.4-0.7-0.9-0.9-1.4c-0.2-0.5-0.3-1.1-0.3-1.7c0-0.7,0.2-1.4,0.4-2c0.3-0.6,0.7-1.2,1.2-1.7
	c0.5-0.5,1.1-0.9,1.7-1.1c0.6-0.3,1.3-0.4,2.1-0.4c0.5,0,1.1,0.1,1.6,0.3c0.5,0.2,0.9,0.4,1.3,0.8c-0.2,0.2-0.3,0.3-0.5,0.5
	c-0.1,0.1-0.3,0.3-0.5,0.5c-0.6-0.5-1.4-0.8-2.1-0.8c-0.5,0-1.1,0.1-1.6,0.3c-0.5,0.2-0.9,0.5-1.3,0.8c-0.4,0.3-0.7,0.8-0.9,1.2
	c-0.2,0.5-0.3,1-0.3,1.5c0,0.4,0.1,0.8,0.2,1.2c0.1,0.4,0.4,0.7,0.6,1c0.3,0.3,0.6,0.5,1,0.7c0.4,0.2,0.8,0.2,1.3,0.2
	c0.4,0,0.8-0.1,1.2-0.2C214.3,48.9,214.7,48.7,215,48.4z"/>
<path class="st1" d="M224.8,49.2c-0.5,0.4-1.1,0.7-1.7,0.9c-0.6,0.2-1.2,0.3-1.9,0.3c-0.6,0-1.2-0.1-1.7-0.3c-0.5-0.2-1-0.5-1.3-0.9
	c-0.4-0.4-0.7-0.9-0.9-1.4c-0.2-0.5-0.3-1.1-0.3-1.7c0-0.7,0.2-1.4,0.4-2c0.3-0.6,0.7-1.2,1.2-1.7c0.5-0.5,1.1-0.9,1.7-1.1
	c0.6-0.3,1.3-0.4,2-0.4c0.9,0,1.8,0.3,2.5,0.9c0.7,0.6,1.1,1.4,1.3,2.3l-1.8,0.7l-2,0.8l-2.1,0.8l-1.9,0.7c0.2,0.6,0.6,1.1,1.1,1.5
	c0.5,0.4,1.2,0.6,1.9,0.6c1,0,1.9-0.3,2.6-0.9L224.8,49.2z M224.6,43.8c-0.2-0.5-0.5-0.9-0.9-1.2c-0.4-0.3-1-0.5-1.5-0.4
	c-0.5,0-1,0.1-1.5,0.3c-0.5,0.2-0.9,0.5-1.3,0.8c-0.4,0.4-0.7,0.8-0.9,1.2c-0.2,0.5-0.3,0.9-0.3,1.4v0.3l1.6-0.6l1.7-0.7l1.7-0.6
	L224.6,43.8z"/>
</svg>
